<svg width="16" height="17" viewBox="0 0 16 17" fill="none" xmlns="http://www.w3.org/2000/svg">
<g id="faviconWhite16">
<rect id="Rectangle 3" x="0.5" y="1.28192" width="15" height="15" rx="1.5" fill="white" stroke="black"/>
<path id="K" d="M5.85294 11.1247L5.80494 13.4767L7.14894 13.6047C7.14894 13.9034 7.05827 14.2234 6.87694 14.5647H3.19694L3.14894 14.0047C3.65027 13.834 4.14094 13.706 4.62094 13.6207C4.51427 9.48203 4.42894 6.37803 4.36494 4.3087C3.97027 4.23403 3.49561 4.10603 2.94094 3.9247L2.98894 3.3647H6.98894C7.17027 3.70603 7.26094 4.02603 7.26094 4.3247C6.72761 4.36736 6.30094 4.3887 5.98094 4.3887C5.95961 5.49803 5.93827 6.5007 5.91694 7.3967C5.90627 8.2927 5.89561 8.92203 5.88494 9.2847L9.70894 4.4527L8.42894 4.3247C8.42894 4.02603 8.51961 3.70603 8.70094 3.3647H12.7649L12.8129 4.0687C12.3223 4.23936 11.8423 4.36736 11.3729 4.4527L8.22094 8.2447L11.9009 13.4767L13.2449 13.6047C13.2449 13.9034 13.1543 14.2234 12.9729 14.5647H10.9729L7.34094 9.3327L5.85294 11.1247Z" fill="#16E131"/>
<path id="P" d="M7.38634 3.3647C8.74101 3.3647 9.74368 3.5887 10.3943 4.0367C11.0557 4.47403 11.3863 5.2527 11.3863 6.3727C11.3863 7.4927 11.061 8.38336 10.4103 9.0447C9.75968 9.69536 8.70901 10.0207 7.25834 10.0207H5.91434L5.86634 13.4927L7.11434 13.6047C7.11434 13.9034 7.02368 14.2234 6.84234 14.5647H3.24234L3.19434 14.0207C3.64234 13.85 4.10101 13.722 4.57034 13.6367C4.50634 9.4767 4.45301 6.38336 4.41034 4.3567C4.12234 4.30336 3.65301 4.17536 3.00234 3.9727L3.08234 3.3647H7.38634ZM7.09834 8.9807C8.01568 8.97003 8.71434 8.7407 9.19434 8.2927C9.67434 7.83403 9.91434 7.23136 9.91434 6.4847C9.91434 5.73803 9.67968 5.2207 9.21034 4.9327C8.74101 4.63403 7.98901 4.4847 6.95434 4.4847C6.76234 4.4847 6.43701 4.49003 5.97834 4.5007C5.97834 4.51136 5.96234 6.01003 5.93034 8.9967L7.09834 8.9807Z" fill="#1627E1"/>
</g>
</svg>
